<svg xmlns="http://www.w3.org/2000/svg" viewBox="0 0 100 100">
  <defs>
    <linearGradient id="cloudGradient" x1="0%" y1="0%" x2="100%" y2="100%">
      <stop offset="0%" style="stop-color:#14B8A6;stop-opacity:1" />
      <stop offset="100%" style="stop-color:#0D9488;stop-opacity:1" />
    </linearGradient>
  </defs>
  <path fill="url(#cloudGradient)" d="M80,45c0-10.5-8.5-19-19-19c-2.8,0-5.5,0.6-7.9,1.8C49.4,17.1,38.8,11,27,11C12.1,11,0,23.1,0,38 c0,2.3,0.3,4.5,0.8,6.7C0.3,45.8,0,46.9,0,48c0,8.8,7.2,16,16,16h12h36h16c8.8,0,16-7.2,16-16C96,38.3,88.7,31,80,45z M80,58H64H28H16 c-5.5,0-10-4.5-10-10c0-0.6,0.1-1.2,0.2-1.8l0.5-2.3l-0.9-2.2C5.3,40.5,5,39.3,5,38c0-12.2,9.8-22,22-22c9.7,0,18.1,6.3,21,15 l0.8,2.4l2.4-0.8c2-0.7,4.2-1,6.4-1c7.7,0,14,6.3,14,14v1.4l1.4,0.1c6,0.5,10.6,5.5,10.6,11.5C86,53.5,81.5,58,80,58z"/>
</svg>
